<?xml version="1.0" standalone="no"?>
<!DOCTYPE svg PUBLIC "-//W3C//DTD SVG 20010904//EN"
 "http://www.w3.org/TR/2001/REC-SVG-20010904/DTD/svg10.dtd">
<svg version="1.0" xmlns="http://www.w3.org/2000/svg"
 width="400.000000pt" height="400.000000pt" viewBox="0 0 400.000000 400.000000"
 preserveAspectRatio="xMidYMid meet">
<metadata>
Created by potrace 1.14, written by Peter Selinger 2001-2017
</metadata>
<g transform="translate(0.000000,400.000000) scale(0.100000,-0.100000)"
fill="#000000" stroke="none">
<path d="M1592 3160 c-67 -16 -133 -77 -181 -167 -22 -43 -34 -176 -22 -254
28 -179 163 -329 297 -329 91 0 165 52 204 142 48 111 34 321 -28 445 -28 55
-95 128 -138 151 -29 14 -95 21 -132 12z"/>
<path d="M2319 3161 c-87 -17 -177 -121 -216 -249 -24 -78 -24 -278 0 -340 68
-178 256 -216 389 -79 24 24 50 57 58 73 8 16 18 31 21 34 3 3 15 30 25 60 14
41 19 83 19 165 0 104 -2 114 -32 175 -38 77 -58 101 -115 133 -50 29 -98 38
-149 28z"/>
<path d="M1033 2554 c-146 -87 -147 -373 -3 -536 49 -56 131 -98 192 -98 60 0
129 44 160 102 31 58 33 225 4 308 -68 196 -229 299 -353 224z"/>
<path d="M2795 2558 c-78 -40 -145 -124 -181 -228 -29 -83 -27 -250 4 -308 51
-95 158 -127 260 -76 174 87 256 370 156 541 -49 85 -153 116 -239 71z"/>
<path d="M1879 2150 c-60 -15 -173 -74 -238 -124 -65 -51 -173 -172 -193 -218
-7 -15 -16 -28 -19 -28 -4 0 -19 -35 -35 -77 -15 -43 -32 -84 -37 -91 -6 -7
-13 -62 -15 -122 -4 -104 -3 -110 24 -165 47 -93 124 -139 252 -151 94 -9 169
9 239 56 100 68 193 70 277 6 62 -47 113 -61 216 -60 145 1 232 46 284 149 27
54 28 62 24 163 -2 59 -9 116 -16 127 -6 11 -23 53 -38 93 -15 39 -30 72 -33
72 -3 0 -12 13 -19 28 -22 51 -128 167 -203 223 -41 31 -108 71 -149 89 -67
30 -85 34 -180 36 -58 2 -121 -1 -141 -6z"/>
<path d="M3469 683 c-13 -16 -12 -17 4 -4 16 13 21 21 13 21 -2 0 -10 -8 -17
-17z"/>
</g>
</svg>
